# xmcd
#
# Track frame offsets:
#	150
#	12269
#	25108
#	36433
#	48477
#	61743
#	74893
#	87567
#	99040
#	110937
#	122899
#	136930
#	148751
#	160837
#	171790
#	182603
#	194596
#	204521
#	216878
#	228835
#	242126
#	254868
#	268270
#	280578
#	296077
#
# Disc length: 4162
#
# Revision: 1
# Processed by: cddbd v1.5.1PL2 Copyright (c) Steve Scherf et al.
# Submitted via: CDex 1.51
# Normalized: r0:TDELIM( - )
#
DISCID=88104019
DTITLE=Various Artist - Down Home Blue Classics 1943-1953 - CD3 - Texas 1946-1953
DYEAR=2004
DGENRE=Blues
TTITLE0=Thuunder Smith - Little Mama Boogie
TTITLE1=Frankie Lee Sims - Cross Country Blues
TTITLE2=J D Edwards - Hobo
TTITLE3=L C Williams - Hole In The Wall
TTITLE4=Leroy Ervin - Rock Island Blues
TTITLE5=Wright Holmes - Alley Special
TTITLE6=Sonny Boy Johnson - Quinsella
TTITLE7=Dr Hepcat - Hattie Greene
TTITLE8=Andy Thomas - Angel Chile
TTITLE9=Lee Hunter - Back To Santa Fe
TTITLE10=Rattlesnake Cooper - Rattlesnake Blues
TTITLE11=Buddy Chiles - Mistreated Blues
TTITLE12=Leroy Johnson - No One To Love Me
TTITLE13=Willie Lane - Too Many Women Blues
TTITLE14=Johnny Beck - Locked In Jail Blues
TTITLE15=Charlie Bradix - Wee Wee Hours
TTITLE16=Jesse James - Forgive Me Blues
TTITLE17=Minister Parker - Blake Snake Blues
TTITLE18=Alexander Moore - Neglected Woman
TTITLE19=Lil Son Jackson - Gambling Blues
TTITLE20=Manny Nichols - Throw A Little Boogie
TTITLE21=Lightnin' Hopkins - Gice Me Central 209
TTITLE22=Soldier Boy Houston - Western Rider Blues
TTITLE23=Nat Terry - Take It Easy
TTITLE24=Luther Stoneham - Sittin' Here Wonderin'
EXTD=YEAR: 2004
EXTT0=
EXTT1=
EXTT2=
EXTT3=
EXTT4=
EXTT5=
EXTT6=
EXTT7=
EXTT8=
EXTT9=
EXTT10=
EXTT11=
EXTT12=
EXTT13=
EXTT14=
EXTT15=
EXTT16=
EXTT17=
EXTT18=
EXTT19=
EXTT20=
EXTT21=
EXTT22=
EXTT23=
EXTT24=
PLAYORDER=
